<svg width="39" height="39" viewBox="0 0 39 39" fill="none" xmlns="http://www.w3.org/2000/svg">
<path d="M10.9778 16.4224C10.6309 16.4224 10.298 16.4753 9.96664 16.5235C10.074 16.1626 10.1844 15.7955 10.3618 15.4657C10.5391 14.9866 10.816 14.5713 11.0913 14.1529C11.3215 13.7002 11.7275 13.3937 12.0262 13.0064C12.3389 12.63 12.7651 12.3795 13.1026 12.0669C13.434 11.7402 13.868 11.5769 14.2133 11.3466C14.5742 11.1397 14.8884 10.9111 15.2244 10.8022L16.0629 10.4569L16.8002 10.1504L16.0458 7.13574L15.1171 7.35974C14.82 7.43441 14.4575 7.52152 14.0453 7.62574C13.6238 7.70352 13.1742 7.91663 12.6733 8.11108C12.1786 8.33196 11.6062 8.4813 11.0742 8.83596C10.5391 9.17508 9.92153 9.45819 9.37709 9.91241C8.84975 10.3806 8.21353 10.7866 7.74375 11.3824C7.23042 11.9393 6.72331 12.5242 6.32975 13.19C5.87397 13.8246 5.56442 14.5215 5.23775 15.2106C4.9422 15.8997 4.7042 16.6044 4.50975 17.2889C4.14108 18.6609 3.9762 19.9644 3.91242 21.0797C3.85953 22.1966 3.89064 23.1253 3.95597 23.7973C3.97931 24.1146 4.02286 24.4226 4.05397 24.6357L4.09286 24.8971L4.13331 24.8877C4.40998 26.1801 5.04689 27.3678 5.97036 28.3134C6.89383 29.2589 8.06613 29.9237 9.35163 30.2308C10.6371 30.5379 11.9833 30.4748 13.2345 30.0488C14.4856 29.6228 15.5906 28.8513 16.4216 27.8235C17.2526 26.7957 17.7756 25.5537 17.9302 24.2411C18.0848 22.9285 17.8646 21.5989 17.2951 20.4062C16.7256 19.2135 15.8301 18.2064 14.7121 17.5014C13.5941 16.7964 12.2994 16.4223 10.9778 16.4224ZM28.0889 16.4224C27.742 16.4224 27.4091 16.4753 27.0778 16.5235C27.1851 16.1626 27.2955 15.7955 27.4729 15.4657C27.6502 14.9866 27.9271 14.5713 28.2024 14.1529C28.4326 13.7002 28.8386 13.3937 29.1373 13.0064C29.45 12.63 29.8762 12.3795 30.2138 12.0669C30.5451 11.7402 30.9791 11.5769 31.3244 11.3466C31.6853 11.1397 31.9995 10.9111 32.3355 10.8022L33.174 10.4569L33.9113 10.1504L33.1569 7.13574L32.2282 7.35974C31.9311 7.43441 31.5686 7.52152 31.1564 7.62574C30.7349 7.70352 30.2853 7.91663 29.7844 8.11108C29.2913 8.33352 28.7173 8.4813 28.1853 8.83752C27.6502 9.17663 27.0326 9.45974 26.4882 9.91396C25.9609 10.3822 25.3246 10.7882 24.8549 11.3824C24.3415 11.9393 23.8344 12.5242 23.4409 13.19C22.9851 13.8246 22.6755 14.5215 22.3489 15.2106C22.0533 15.8997 21.8153 16.6044 21.6209 17.2889C21.2522 18.6609 21.0873 19.9644 21.0235 21.0797C20.9706 22.1966 21.0018 23.1253 21.0671 23.7973C21.0904 24.1146 21.134 24.4226 21.1651 24.6357L21.204 24.8971L21.2444 24.8877C21.5211 26.1801 22.158 27.3678 23.0815 28.3134C24.0049 29.2589 25.1772 29.9237 26.4627 30.2308C27.7483 30.5379 29.0944 30.4748 30.3456 30.0488C31.5967 29.6228 32.7017 28.8513 33.5327 27.8235C34.3637 26.7957 34.8867 25.5537 35.0413 24.2411C35.1959 22.9285 34.9757 21.5989 34.4062 20.4062C33.8367 19.2135 32.9412 18.2064 31.8232 17.5014C30.7053 16.7964 29.4105 16.4223 28.0889 16.4224Z" fill="#F26440"/>
</svg>
